<svg width="44" height="99" viewBox="0 0 44 99" fill="none" xmlns="http://www.w3.org/2000/svg">
<path fill-rule="evenodd" clip-rule="evenodd" d="M4 22.0044V47.9956C4 57.9443 12.0561 66 22 66C31.9426 66 40 57.9403 40 47.9956V22.0044C40 12.0557 31.9439 4 22 4C12.0574 4 4 12.0596 4 22.0044ZM0 22.0044C0 9.85168 9.84706 0 22 0C34.1503 0 44 9.84384 44 22.0044V47.9956C44 60.1483 34.1529 70 22 70C9.84974 70 0 60.1562 0 47.9956V22.0044Z" fill="white"/>
<path fill-rule="evenodd" clip-rule="evenodd" d="M20 16.0085C20 14.8992 20.8877 14 22 14C23.1046 14 24 14.9019 24 16.0085V23.9915C24 25.1008 23.1123 26 22 26C20.8954 26 20 25.0981 20 23.9915V16.0085Z" fill="white"/>
<path fill-rule="evenodd" clip-rule="evenodd" d="M22 94.1716L30.5858 85.5858C31.3668 84.8047 32.6332 84.8047 33.4142 85.5858C34.1953 86.3668 34.1953 87.6332 33.4142 88.4142L23.4142 98.4142C23.0237 98.8047 22.5118 99 22 99C21.4882 99 20.9763 98.8047 20.5858 98.4142L10.5858 88.4142C9.80474 87.6332 9.80474 86.3668 10.5858 85.5858C11.3668 84.8047 12.6332 84.8047 13.4142 85.5858L22 94.1716Z" fill="white"/>
<path fill-rule="evenodd" clip-rule="evenodd" d="M22 81.1716L30.5858 72.5858C31.3668 71.8047 32.6332 71.8047 33.4142 72.5858C34.1953 73.3668 34.1953 74.6332 33.4142 75.4142L23.4142 85.4142C23.0237 85.8047 22.5118 86 22 86C21.4882 86 20.9763 85.8047 20.5858 85.4142L10.5858 75.4142C9.80474 74.6332 9.80474 73.3668 10.5858 72.5858C11.3668 71.8047 12.6332 71.8047 13.4142 72.5858L22 81.1716Z" fill="white"/>
</svg>
